<mxfile host="app.diagrams.net" modified="2020-11-05T03:05:28.821Z" agent="5.0 (Windows NT 10.0; Win64; x64) AppleWebKit/537.36 (KHTML, like Gecko) Chrome/84.0.4147.105 Safari/537.36" etag="In1Q7YIwszhM-_obTUZa" version="13.9.1" type="github">
  <diagram id="a45cf8ec-cd66-6f27-3ac3-be6e809c9e4a" name="Page-1">
    <mxGraphModel dx="1422" dy="794" grid="1" gridSize="80" guides="1" tooltips="1" connect="1" arrows="1" fold="1" page="1" pageScale="1" pageWidth="1654" pageHeight="1169" background="#ffffff" math="0" shadow="0">
      <root>
        <mxCell id="0" />
        <mxCell id="1" parent="0" />
      </root>
    </mxGraphModel>
  </diagram>
</mxfile>
